<svg xmlns="http://www.w3.org/2000/svg" viewBox="0 0 64 64">
  <!-- Feathery fronds -->
  <path d="M32 8 Q30 14 28 20" stroke="#66BB6A" stroke-width="1" fill="none"/>
  <path d="M32 8 Q34 14 36 20" stroke="#66BB6A" stroke-width="1" fill="none"/>
  <path d="M28 10 Q26 16 24 22" stroke="#81C784" stroke-width="0.8" fill="none"/>
  <path d="M36 10 Q38 16 40 22" stroke="#81C784" stroke-width="0.8" fill="none"/>
  <path d="M30 6 Q28 12 26 18" stroke="#66BB6A" stroke-width="0.8" fill="none"/>
  <path d="M34 6 Q36 12 38 18" stroke="#66BB6A" stroke-width="0.8" fill="none"/>
  <!-- More fronds -->
  <path d="M26 12 Q22 16 18 20" stroke="#81C784" stroke-width="0.7" fill="none"/>
  <path d="M38 12 Q42 16 46 20" stroke="#81C784" stroke-width="0.7" fill="none"/>
  <path d="M24 14 Q20 18 16 24" stroke="#A5D6A7" stroke-width="0.6" fill="none"/>
  <path d="M40 14 Q44 18 48 24" stroke="#A5D6A7" stroke-width="0.6" fill="none"/>
  <!-- Green stalks converging to bulb -->
  <line x1="26" y1="22" x2="28" y2="34" stroke="#4CAF50" stroke-width="2" stroke-linecap="round"/>
  <line x1="32" y1="20" x2="32" y2="34" stroke="#388E3C" stroke-width="2.5" stroke-linecap="round"/>
  <line x1="38" y1="22" x2="36" y2="34" stroke="#4CAF50" stroke-width="2" stroke-linecap="round"/>
  <!-- White bulbous base -->
  <ellipse cx="32" cy="44" rx="12" ry="10" fill="#F5F5DC"/>
  <ellipse cx="32" cy="44" rx="12" ry="10" fill="none" stroke="#E0E0B0" stroke-width="0.7"/>
  <!-- Bulb segments -->
  <path d="M26 38 Q26 44 28 52" stroke="#E0E0B0" stroke-width="0.5" fill="none"/>
  <path d="M32" y1="36" x2="32" y2="54" stroke="#E0E0B0" stroke-width="0.5" fill="none"/>
  <path d="M38 38 Q38 44 36 52" stroke="#E0E0B0" stroke-width="0.5" fill="none"/>
  <!-- Roots -->
  <line x1="30" y1="54" x2="28" y2="60" stroke="#8D6E63" stroke-width="0.7"/>
  <line x1="32" y1="54" x2="32" y2="61" stroke="#8D6E63" stroke-width="0.7"/>
  <line x1="34" y1="54" x2="36" y2="60" stroke="#8D6E63" stroke-width="0.7"/>
</svg>
